<mxfile host="app.diagrams.net" modified="2023-01-12T08:14:31.695Z" agent="5.0 (Macintosh; Intel Mac OS X 10_15_7) AppleWebKit/537.36 (KHTML, like Gecko) Chrome/94.0.4606.61 Safari/537.36" version="20.8.1" etag="wJwcqz3Q_7ByG18kkrCB" type="github">
  <diagram id="RufIClRqyMkh2DQAmiP8" name="Сторінка-1">
    <mxGraphModel dx="1769" dy="533" grid="1" gridSize="10" guides="1" tooltips="1" connect="1" arrows="1" fold="1" page="1" pageScale="1" pageWidth="827" pageHeight="1169" math="0" shadow="0">
      <root>
        <mxCell id="0" />
        <mxCell id="1" parent="0" />
        <mxCell id="e8pLaEjcyMCnkGblYn8T-1" value="&lt;b&gt;Neostesia 2200&lt;br&gt;Online Marketing Strategy&lt;/b&gt;" style="ellipse;whiteSpace=wrap;html=1;fillColor=#e1d5e7;strokeColor=#9673a6;" vertex="1" parent="1">
          <mxGeometry x="250" y="340" width="250" height="120" as="geometry" />
        </mxCell>
        <mxCell id="e8pLaEjcyMCnkGblYn8T-2" value="Landing page for Marketing (webflow.io framework)" style="rounded=0;whiteSpace=wrap;html=1;" vertex="1" parent="1">
          <mxGeometry x="-10" y="310" width="190" height="40" as="geometry" />
        </mxCell>
        <mxCell id="e8pLaEjcyMCnkGblYn8T-3" value="Work with target audience and analysis of competitors" style="rounded=0;whiteSpace=wrap;html=1;" vertex="1" parent="1">
          <mxGeometry x="110" y="230" width="220" height="40" as="geometry" />
        </mxCell>
        <mxCell id="e8pLaEjcyMCnkGblYn8T-4" value="Email marketing (mass, trigered,service mailings)" style="rounded=0;whiteSpace=wrap;html=1;" vertex="1" parent="1">
          <mxGeometry x="430" y="230" width="230" height="40" as="geometry" />
        </mxCell>
        <mxCell id="e8pLaEjcyMCnkGblYn8T-5" value="SMM (target, contextual advertising FB, IG, Twitter, Google ads, keywords)" style="rounded=0;whiteSpace=wrap;html=1;" vertex="1" parent="1">
          <mxGeometry x="570" y="310" width="240" height="40" as="geometry" />
        </mxCell>
        <mxCell id="e8pLaEjcyMCnkGblYn8T-6" value="&amp;nbsp;Chat-bots" style="rounded=0;whiteSpace=wrap;html=1;" vertex="1" parent="1">
          <mxGeometry x="555" y="390" width="170" height="40" as="geometry" />
        </mxCell>
        <mxCell id="e8pLaEjcyMCnkGblYn8T-7" value="Tiktok" style="rounded=0;whiteSpace=wrap;html=1;" vertex="1" parent="1">
          <mxGeometry x="580" y="460" width="120" height="40" as="geometry" />
        </mxCell>
        <mxCell id="e8pLaEjcyMCnkGblYn8T-8" value="Web analytics (Google Analytics, Firebase, Matomo etc.)" style="rounded=0;whiteSpace=wrap;html=1;" vertex="1" parent="1">
          <mxGeometry x="540" y="530" width="230" height="50" as="geometry" />
        </mxCell>
        <mxCell id="e8pLaEjcyMCnkGblYn8T-9" value="Content Marketing (blog in IG, FB,landing, post photo/video/story with using content plan)&amp;nbsp;" style="rounded=0;whiteSpace=wrap;html=1;" vertex="1" parent="1">
          <mxGeometry x="220" y="525" width="270" height="55" as="geometry" />
        </mxCell>
        <mxCell id="e8pLaEjcyMCnkGblYn8T-10" value="SEO promotion" style="rounded=0;whiteSpace=wrap;html=1;" vertex="1" parent="1">
          <mxGeometry x="10" y="490" width="150" height="60" as="geometry" />
        </mxCell>
        <mxCell id="e8pLaEjcyMCnkGblYn8T-11" value="YouTube promotion" style="rounded=0;whiteSpace=wrap;html=1;" vertex="1" parent="1">
          <mxGeometry x="-160" y="480" width="120" height="60" as="geometry" />
        </mxCell>
        <mxCell id="e8pLaEjcyMCnkGblYn8T-12" value="Channels (discord, telegram etc.)" style="rounded=0;whiteSpace=wrap;html=1;" vertex="1" parent="1">
          <mxGeometry x="-210" y="350" width="150" height="60" as="geometry" />
        </mxCell>
      </root>
    </mxGraphModel>
  </diagram>
</mxfile>
